<?xml version="1.0" encoding="UTF-8"?>
<svg width="1069px" height="233px" viewBox="0 0 1069 233" version="1.1" xmlns="http://www.w3.org/2000/svg" xmlns:xlink="http://www.w3.org/1999/xlink">
    <!-- Generator: Sketch 64 (93537) - https://sketch.com -->
    <title>stackmail-logo</title>
    <desc>Created with Sketch.</desc>
    <g id="Page-1" stroke="none" stroke-width="1" fill="none" fill-rule="evenodd">
        <g id="Artboard" transform="translate(-177.000000, -161.000000)">
            <g id="stackmail-logo" transform="translate(177.000000, 160.000000)">
                <path d="M345.865234,184.109375 C377.59375,184.109375 397.017578,168.464844 397.017578,143.679688 C397.017578,124.431641 385.328125,113.621094 358.521484,108.259766 L345.074219,105.535156 C330.132812,102.546875 323.980469,97.7128906 323.980469,89.890625 C323.980469,80.5742188 332.769531,74.421875 345.865234,74.421875 C359.224609,74.421875 368.628906,80.9257812 369.507812,91.7363281 L394.556641,91.7363281 C394.117188,68.4453125 375.484375,52.9765625 345.865234,52.9765625 C317.652344,52.9765625 297.4375,68.3574219 297.4375,91.5605469 C297.4375,110.457031 309.830078,122.585938 335.142578,127.595703 L348.501953,130.232422 C364.410156,133.484375 370.386719,138.230469 370.386719,146.580078 C370.386719,155.896484 360.71875,162.751953 346.568359,162.751953 C332.154297,162.751953 321.431641,156.423828 319.761719,145.789062 L294.712891,145.789062 C295.503906,169.695312 315.630859,184.109375 345.865234,184.109375 Z M446.009375,182.351562 C451.194922,182.351562 455.589453,181.912109 458.226172,181.296875 L458.226172,162.400391 C456.644141,162.664062 454.271094,162.839844 451.985937,162.839844 C444.427344,162.839844 440.911719,159.412109 440.911719,152.205078 L440.911719,107.117188 L458.314062,107.117188 L458.314062,87.78125 L440.911719,87.78125 L440.911719,66.0722656 L415.247656,66.0722656 L415.247656,87.78125 L401.976172,87.78125 L401.976172,107.117188 L415.247656,107.117188 L415.247656,156.599609 C415.247656,174.96875 423.860937,182.351562 446.009375,182.351562 Z M496.846875,183.494141 C508.624219,183.494141 520.313672,177.605469 525.587109,167.585938 L526.114453,167.585938 L526.114453,182 L550.899609,182 L550.899609,117.224609 C550.899609,98.2402344 535.167187,85.7597656 510.997266,85.7597656 C486.036328,85.7597656 470.479688,98.328125 469.512891,116.609375 L492.979688,116.609375 C494.210156,109.666016 500.274609,104.919922 509.854688,104.919922 C519.522656,104.919922 525.675,110.017578 525.675,118.806641 L525.675,125.046875 L501.944531,126.453125 C478.477734,127.859375 465.294141,137.791016 465.294141,154.929688 C465.294141,171.892578 478.917188,183.494141 496.846875,183.494141 Z M505.284375,164.949219 C496.583203,164.949219 490.782422,160.554688 490.782422,153.523438 C490.782422,146.84375 496.231641,142.537109 505.811719,141.833984 L525.675,140.603516 L525.675,147.458984 C525.675,157.654297 516.446484,164.949219 505.284375,164.949219 Z M607.801563,184.021484 C632.586719,184.021484 649.198047,169.695312 650.516406,147.458984 L626.610156,147.458984 C625.028125,157.742188 618.348438,163.894531 608.065234,163.894531 C595.321094,163.894531 587.410938,153.347656 587.410938,134.802734 C587.410938,116.609375 595.321094,105.886719 607.977344,105.886719 C618.524219,105.886719 625.116016,112.917969 626.610156,122.849609 L650.428516,122.849609 C649.285938,101.492188 633.114063,85.7597656 607.625781,85.7597656 C579.412891,85.7597656 561.395313,104.568359 561.395313,134.802734 C561.395313,165.564453 579.412891,184.021484 607.801563,184.021484 Z M686.588281,182 L686.588281,150.886719 L693.267969,143.679688 L720.250391,182 L749.781641,182 L712.076563,128.210938 L748.023828,87.78125 L718.932031,87.78125 L686.939844,125.574219 L686.588281,125.574219 L686.588281,55.1738281 L660.924219,55.1738281 L660.924219,182 L686.588281,182 Z M780.404297,182 L780.404297,96.3945312 L781.107422,96.3945312 L815.560547,182 L832.259766,182 L866.712891,96.3945312 L867.416016,96.3945312 L867.416016,182 L891.058594,182 L891.058594,55.1738281 L860.296875,55.1738281 L824.261719,146.228516 L823.558594,146.228516 L787.523438,55.1738281 L756.761719,55.1738281 L756.761719,182 L780.404297,182 Z M933.370703,183.494141 C945.148047,183.494141 956.8375,177.605469 962.110937,167.585938 L962.638281,167.585938 L962.638281,182 L987.423437,182 L987.423437,117.224609 C987.423437,98.2402344 971.691016,85.7597656 947.521094,85.7597656 C922.560156,85.7597656 907.003516,98.328125 906.036719,116.609375 L929.503516,116.609375 C930.733984,109.666016 936.798437,104.919922 946.378516,104.919922 C956.046484,104.919922 962.198828,110.017578 962.198828,118.806641 L962.198828,125.046875 L938.468359,126.453125 C915.001562,127.859375 901.817969,137.791016 901.817969,154.929688 C901.817969,171.892578 915.441016,183.494141 933.370703,183.494141 Z M941.808203,164.949219 C933.107031,164.949219 927.30625,160.554688 927.30625,153.523438 C927.30625,146.84375 932.755469,142.537109 942.335547,141.833984 L962.198828,140.603516 L962.198828,147.458984 C962.198828,157.654297 952.970312,164.949219 941.808203,164.949219 Z M1014.53047,75.0371094 C1022.00117,75.0371094 1027.88984,69.0605469 1027.88984,61.8535156 C1027.88984,54.5585938 1022.00117,48.6699219 1014.53047,48.6699219 C1007.05977,48.6699219 1001.17109,54.5585938 1001.17109,61.8535156 C1001.17109,69.0605469 1007.05977,75.0371094 1014.53047,75.0371094 Z M1027.45039,182 L1027.45039,87.78125 L1001.78633,87.78125 L1001.78633,182 L1027.45039,182 Z M1068.18047,182 L1068.18047,55.1738281 L1042.51641,55.1738281 L1042.51641,182 L1068.18047,182 Z" id="StackMail" fill="#333333" fill-rule="nonzero"></path>
                <g id="Group" transform="translate(0.000000, 0.500000)" fill="#4871E4">
                    <rect id="Rectangle-Copy-2" x="0" y="192.5" width="234" height="41" rx="8"></rect>
                    <rect id="Rectangle-Copy-3" x="0" y="123.5" width="234" height="41" rx="8"></rect>
                    <rect id="Rectangle-Copy-4" x="0" y="0.5" width="234" height="95" rx="8"></rect>
                </g>
            </g>
        </g>
    </g>
</svg>